Coordinates
version=1
nRows=13
nColumns=36
inDegrees=yes

Units are S.I. units (second, meters, Newtons, ...)
If the header above contains a line with 'inDegrees', this indicates whether rotational values are in degrees (yes) or radians (no).

endheader
time	pelvis_tilt	pelvis_list	pelvis_rotation	pelvis_tx	pelvis_ty	pelvis_tz	hip_flexion_r	hip_adduction_r	hip_rotation_r	knee_angle_r	knee_angle_r_beta	ankle_angle_r	subtalar_angle_r	mtp_angle_r	hip_flexion_l	hip_adduction_l	hip_rotation_l	knee_angle_l	knee_angle_l_beta	ankle_angle_l	subtalar_angle_l	mtp_angle_l	lumbar_extension	lumbar_bending	lumbar_rotation	arm_flex_r	arm_add_r	arm_rot_r	elbow_flex_r	pro_sup_r	arm_flex_l	arm_add_l	arm_rot_l	elbow_flex_l	pro_sup_l
      1.73333330	      2.82371875	      1.66540696	      2.58241230	      0.36789302	      0.93708280	     -0.10920823	    -10.51109442	     -6.47367700	     -4.49943621	      0.59619618	      0.01040559	      1.31811279	    -18.60654712	     -7.49999987	     -6.27507254	      0.77906472	      8.81251791	      1.08545677	      0.01894479	     -0.60977297	    -14.28149623	     -7.49999987	     -7.01008609	     -1.30802632	      0.02972696	     -0.15780972	     -4.32726162	    -76.03530337	     96.09449460	     33.72805665	      1.00968649	     -6.25621127	    -36.71835371	     94.46232584	     54.03690461
      1.75000000	      2.85066372	      1.67516647	      2.53887681	      0.36791753	      0.93719401	     -0.10921596	    -10.51565702	     -6.49215810	     -4.30955836	      0.61921619	      0.01080736	      1.11819676	    -18.95880858	     -7.49999987	     -6.32349947	      0.81032629	      8.77664495	      1.09286089	      0.01907402	     -0.61160276	    -14.43383991	     -7.49999987	     -7.00851541	     -1.29632272	      0.03178766	     -0.02652631	     -4.27287962	    -76.14174574	     95.81030177	     37.11144594	      1.01530865	     -6.20686835	    -37.27875198	     94.45819199	     54.75603321
      1.76666670	      2.83155353	      1.68936092	      2.54945910	      0.36802129	      0.93989644	     -0.10909692	    -10.47093317	     -6.49755777	     -4.29291478	      0.62551586	      0.01091731	      1.20388243	    -18.75084681	     -7.49999987	     -6.31666469	      0.83307015	      8.71195401	      1.10528110	      0.01929079	     -0.56672769	    -14.32160119	     -7.49999987	     -7.01840844	     -1.31936098	      0.14322336	     -0.18161219	     -4.23946948	    -76.07309730	     95.91615349	     33.36536574	      1.21067139	     -5.99998753	    -37.55885656	     94.36629001	     53.61323759
      1.78333330	      2.85081810	      1.70900309	      2.53736292	      0.36793018	      0.93981482	     -0.10912076	    -10.49280834	     -6.49024312	     -4.16560696	      0.63988074	      0.01116803	      1.20875600	    -18.68648620	     -7.49999987	     -6.34198426	      0.85029371	      8.69825688	      1.10051064	      0.01920753	     -0.63570535	    -14.32496664	     -7.49999987	     -7.04376142	     -1.33598305	      0.14928113	     -0.11028273	     -4.21900080	    -76.37759674	     95.77617083	     33.19916482	      1.30317208	     -5.86104065	    -37.98672089	     94.29674030	     53.43280952
      1.80000000	      2.91135361	      1.72106718	      2.55175848	      0.36801229	      0.93956473	     -0.10896951	    -10.56808049	     -6.46085298	     -4.29870202	      0.70794433	      0.01235596	      1.23333534	    -18.48207034	     -7.49999987	     -6.42773827	      0.85971573	      8.64007858	      1.09994776	      0.01919771	     -0.61238301	    -14.29213464	     -7.49999987	     -7.08907476	     -1.35657107	      0.08187353	     -0.15015844	     -4.03454343	    -76.61730551	     95.70092697	     32.96665523	      1.41536206	     -5.72403839	    -38.40626471	     94.25121449	     53.48395465
      1.81666670	      2.97374765	      1.73011841	      2.53484681	      0.36801733	      0.93951777	     -0.10891378	    -10.61026501	     -6.43520992	     -4.28307860	      0.79637079	      0.01389929	      1.17241845	    -18.53449996	     -7.49999987	     -6.51293296	      0.87204169	      8.53740450	      1.09235289	      0.01906515	     -0.60311032	    -14.25372177	     -7.49999987	     -7.11772270	     -1.37771108	      0.11006573	     -0.25678783	     -3.83003409	    -76.93768594	     95.63160798	     32.70498992	      1.48294792	     -5.70537749	    -38.55291763	     94.03122163	     53.21711945
      1.83333330	      3.02429137	      1.71906803	      2.55382398	      0.36800970	      0.93650616	     -0.10894768	    -10.65215607	     -6.37601910	     -4.25189992	      0.85160210	      0.01486326	      1.28209529	    -18.39348056	     -7.49999987	     -6.58276337	      0.87203491	      8.57161426	      1.09630817	      0.01913419	     -0.60925716	    -14.33096449	     -7.49999987	     -7.10829234	     -1.38614452	      0.10408544	     -0.30303650	     -3.84401011	    -77.05852268	     95.50720837	     32.93582005	      1.48423722	     -5.72609773	    -38.87408718	     94.01201239	     53.07950621
      1.85000000	      3.13506712	      1.70934420	      2.64463008	      0.36802009	      0.93683043	     -0.10909138	    -10.78456939	     -6.33959078	     -4.23412435	      0.93736075	      0.01636003	      1.39444102	    -18.14500626	     -7.49999987	     -6.70586826	      0.86907710	      8.70400218	      1.12134711	      0.01957120	     -0.62570956	    -14.48569703	     -7.49999987	     -7.18270868	     -1.36908547	     -0.12081182	     -0.23361184	     -3.86338306	    -76.96790832	     95.37378064	     33.37292871	      1.51480761	     -5.61419252	    -39.15999192	     94.04821609	     53.19242624
      1.86666670	      3.15863107	      1.70850882	      2.64612572	      0.36813016	      0.93974832	     -0.10890186	    -10.77749913	     -6.33088901	     -4.00523093	      1.03039514	      0.01798379	      1.24554737	    -18.46394626	     -7.49999987	     -6.73828619	      0.85511577	      8.51578357	      1.11823787	      0.01951693	     -0.48758651	    -14.19820825	     -7.49999987	     -7.13351402	     -1.41235276	     -0.11115297	     -0.22046327	     -3.83536008	    -77.18789001	     95.12175703	     32.40340279	      1.61811478	     -5.53864344	    -39.52879654	     93.83001980	     52.78230932
      1.88333330	      3.17260342	      1.67804212	      2.65492594	      0.36802232	      0.93684147	     -0.10902540	    -10.78214847	     -6.29726777	     -3.96731580	      1.06218619	      0.01853865	      1.22948802	    -18.60216596	     -7.49999987	     -6.74716218	      0.83215976	      8.45482070	      1.12804896	      0.01968817	     -0.46274624	    -14.21623375	     -7.49999987	     -7.05255870	     -1.42575172	     -0.15098404	     -0.19429000	     -3.94901333	    -77.32860979	     94.91988698	     32.29554284	      1.64970595	     -5.45179987	    -40.15945200	     93.87301533	     52.63498029
      1.90000000	      3.17649854	      1.65327537	      2.63462789	      0.36808911	      0.93687471	     -0.10905596	    -10.79811948	     -6.28068683	     -3.88108236	      1.07133976	      0.01869841	      1.14598251	    -18.71452335	     -7.49999987	     -6.75660888	      0.80856009	      8.30661998	      1.12093769	      0.01956405	     -0.35791820	    -14.00945888	     -7.49999987	     -6.95334742	     -1.46700004	     -0.12690958	     -0.16000094	     -4.03155931	    -77.54977787	     94.80887057	     32.46804121	      1.74372114	     -5.33308034	    -40.67745941	     93.86921059	     52.58388198
      1.91666670	      3.10803401	      1.62495890	      2.58712695	      0.36803733	      0.93684500	     -0.10914825	    -10.72518526	     -6.27457508	     -3.93028982	      1.08453122	      0.01892864	      1.12971373	    -18.75209481	     -7.49999987	     -6.68492229	      0.79210235	      8.23464049	      1.10623907	      0.01930751	     -0.39651924	    -14.12714441	     -7.49999987	     -6.74470885	     -1.46836160	     -0.31049544	     -0.16251793	     -4.10644125	    -77.41373646	     94.89402872	     32.39042440	      1.50915940	     -5.13630009	    -41.64839112	     94.04375607	     52.46352715
      1.93333330	      3.07619867	      1.60426000	      2.54664597	      0.36815729	      0.93683601	     -0.10915520	    -10.70847765	     -6.24896207	     -3.79066307	      1.07817176	      0.01881765	      0.98620223	    -18.99877926	     -7.49999987	     -6.66151645	      0.77193788	      8.07673236	      1.11599908	      0.01947786	     -0.36161167	    -14.10014389	     -7.49999987	     -6.60359775	     -1.49818564	     -0.28911044	     -0.20348234	     -4.06458321	    -77.61066849	     94.90296255	     32.22890543	      1.53203666	     -4.98233503	    -42.04118828	     94.09371450	     52.32944155
